<svg width="22.000000" height="22.171875" viewBox="0 0 22 22.1719" fill="none" xmlns="http://www.w3.org/2000/svg" xmlns:xlink="http://www.w3.org/1999/xlink">
	<desc>
			Created with Pixso.
	</desc>
	<defs>
		<clipPath id="clip3752_24036">
			<rect id="logos:whatsapp-icon" rx="-0.500000" width="21.000000" height="21.171875" transform="translate(0.500000 0.500000)" fill="white" fill-opacity="0"/>
		</clipPath>
		<linearGradient x1="1062.280762" y1="2133.863525" x2="1062.280762" y2="0.507568" id="paint_linear_3752_24037_0" gradientUnits="userSpaceOnUse">
			<stop stop-color="#1FAF38"/>
			<stop offset="1.000000" stop-color="#60D669"/>
		</linearGradient>
		<linearGradient x1="1100.000000" y1="2209.982422" x2="1100.000000" y2="0.125000" id="paint_linear_3752_24038_0" gradientUnits="userSpaceOnUse">
			<stop stop-color="#F9F9F9"/>
			<stop offset="1.000000" stop-color="#FFFFFF"/>
		</linearGradient>
	</defs>
	<rect id="logos:whatsapp-icon" rx="-0.500000" width="21.000000" height="21.171875" transform="translate(0.500000 0.500000)" fill="#FFFFFF" fill-opacity="0"/>
	<g clip-path="url(#clip3752_24036)">
		<path id="Vector" d="M0.46 11.07C0.46 12.94 0.95 14.76 1.88 16.36L0.38 21.84L5.98 20.37C7.53 21.21 9.27 21.65 11.04 21.65L11.04 21.65C16.87 21.65 21.61 16.91 21.61 11.08C21.62 8.26 20.52 5.6 18.52 3.6C16.52 1.6 13.87 0.5 11.04 0.5C5.21 0.5 0.47 5.24 0.46 11.07L0.46 11.07Z" fill="url(#paint_linear_3752_24037_0)" fill-opacity="1.000000" fill-rule="nonzero"/>
		<path id="Vector" d="M0.09 11.07C0.09 13 0.59 14.88 1.55 16.54L0 22.22L5.8 20.7C7.4 21.57 9.2 22.03 11.04 22.03L11.04 22.03C17.08 22.03 21.99 17.12 22 11.08C22 8.15 20.86 5.4 18.79 3.33C16.72 1.26 13.97 0.12 11.04 0.12C5 0.12 0.09 5.03 0.09 11.07ZM3.55 16.26L3.33 15.91C2.42 14.47 1.94 12.79 1.94 11.07C1.94 6.05 6.02 1.97 11.04 1.97C13.48 1.97 15.76 2.92 17.48 4.64C19.2 6.36 20.15 8.65 20.15 11.08C20.14 16.1 16.06 20.18 11.04 20.18L11.04 20.18C9.4 20.18 7.8 19.74 6.4 18.91L6.07 18.71L2.63 19.62L3.55 16.26L3.55 16.26Z" fill="url(#paint_linear_3752_24038_0)" fill-opacity="1.000000" fill-rule="nonzero"/>
		<path id="Vector" d="M8.3 6.49C8.1 6.04 7.88 6.03 7.69 6.02C7.53 6.01 7.35 6.01 7.16 6.01C6.98 6.01 6.68 6.08 6.43 6.36C6.18 6.63 5.48 7.29 5.48 8.64C5.48 9.98 6.46 11.29 6.59 11.47C6.73 11.65 8.49 14.5 11.27 15.6C13.58 16.51 14.05 16.33 14.55 16.28C15.05 16.24 16.17 15.62 16.4 14.98C16.63 14.34 16.63 13.8 16.56 13.68C16.49 13.57 16.31 13.5 16.03 13.36C15.76 13.23 14.42 12.56 14.16 12.47C13.91 12.38 13.73 12.34 13.55 12.61C13.37 12.88 12.84 13.5 12.68 13.68C12.52 13.87 12.36 13.89 12.09 13.75C11.82 13.61 10.93 13.33 9.89 12.39C9.07 11.67 8.53 10.77 8.37 10.5C8.21 10.22 8.35 10.08 8.49 9.94C8.61 9.82 8.76 9.62 8.9 9.46C9.03 9.3 9.08 9.19 9.17 9C9.26 8.82 9.22 8.66 9.15 8.52C9.08 8.39 8.55 7.03 8.3 6.49Z" fill="#FFFFFF" fill-opacity="1.000000" fill-rule="nonzero"/>
	</g>
</svg>
