<svg width="28.000000" height="28.000000" viewBox="0 0 28 28" fill="none" xmlns="http://www.w3.org/2000/svg" xmlns:xlink="http://www.w3.org/1999/xlink">
	<desc>
			Created with Pixso.
	</desc>
	<defs>
		<clipPath id="clip3752_24057">
			<rect id="openmoji:flag-united-states" rx="-0.500000" width="27.000000" height="27.000000" transform="translate(0.500000 0.500000)" fill="white" fill-opacity="0"/>
		</clipPath>
	</defs>
	<rect id="openmoji:flag-united-states" rx="-0.500000" width="27.000000" height="27.000000" transform="translate(0.500000 0.500000)" fill="#FFFFFF" fill-opacity="0"/>
	<g clip-path="url(#clip3752_24057)">
		<path id="Vector" d="M1.94 6.71L26.05 6.71L26.05 21.49L1.94 21.49L1.94 6.71Z" fill="#FFFFFF" fill-opacity="1.000000" fill-rule="nonzero"/>
		<path id="Vector" d="M1.94 6.71L26.05 6.71L26.05 8.65L1.94 8.65L1.94 6.71ZM1.94 10.21L26.05 10.21L26.05 11.76L1.94 11.76L1.94 10.21ZM1.94 13.32L26.05 13.32L26.05 14.88L1.94 14.88L1.94 13.32Z" fill="#D22F27" fill-opacity="1.000000" fill-rule="nonzero"/>
		<path id="Vector" d="M1.94 6.71L14.38 6.71L14.38 14.88L1.94 14.88L1.94 6.71Z" fill="#1E50A0" fill-opacity="1.000000" fill-rule="nonzero"/>
		<path id="Vector" d="M1.94 16.43L26.05 16.43L26.05 17.99L1.94 17.99L1.94 16.43Z" fill="#D22F27" fill-opacity="1.000000" fill-rule="nonzero"/>
		<path id="Vector" d="M4.37 8.65C4.37 9.03 4.07 9.33 3.69 9.33C3.31 9.33 3.01 9.03 3.01 8.65C3.01 8.28 3.31 7.97 3.69 7.97C4.07 7.97 4.37 8.28 4.37 8.65Z" fill="#FFFFFF" fill-opacity="1.000000" fill-rule="evenodd"/>
		<path id="Vector" d="M7.48 8.65C7.48 9.03 7.18 9.33 6.8 9.33C6.42 9.33 6.12 9.03 6.12 8.65C6.12 8.28 6.42 7.97 6.8 7.97C7.18 7.97 7.48 8.28 7.48 8.65Z" fill="#FFFFFF" fill-opacity="1.000000" fill-rule="evenodd"/>
		<path id="Vector" d="M10.59 8.65C10.59 9.03 10.29 9.33 9.91 9.33C9.54 9.33 9.23 9.03 9.23 8.65C9.23 8.28 9.54 7.97 9.91 7.97C10.29 7.97 10.59 8.28 10.59 8.65Z" fill="#FFFFFF" fill-opacity="1.000000" fill-rule="evenodd"/>
		<path id="Vector" d="M13.7 8.65C13.7 9.03 13.4 9.33 13.02 9.33C12.65 9.33 12.34 9.03 12.34 8.65C12.34 8.28 12.65 7.97 13.02 7.97C13.4 7.97 13.7 8.28 13.7 8.65Z" fill="#FFFFFF" fill-opacity="1.000000" fill-rule="evenodd"/>
		<path id="Vector" d="M12.15 10.21C12.15 10.58 11.84 10.89 11.47 10.89C11.09 10.89 10.79 10.58 10.79 10.21C10.79 9.83 11.09 9.53 11.47 9.53C11.84 9.53 12.15 9.83 12.15 10.21Z" fill="#FFFFFF" fill-opacity="1.000000" fill-rule="evenodd"/>
		<path id="Vector" d="M9.04 10.21C9.04 10.58 8.73 10.89 8.36 10.89C7.98 10.89 7.68 10.58 7.68 10.21C7.68 9.83 7.98 9.53 8.36 9.53C8.73 9.53 9.04 9.83 9.04 10.21Z" fill="#FFFFFF" fill-opacity="1.000000" fill-rule="evenodd"/>
		<path id="Vector" d="M5.93 10.21C5.93 10.58 5.62 10.89 5.25 10.89C4.87 10.89 4.56 10.58 4.56 10.21C4.56 9.83 4.87 9.53 5.25 9.53C5.62 9.53 5.93 9.83 5.93 10.21Z" fill="#FFFFFF" fill-opacity="1.000000" fill-rule="evenodd"/>
		<path id="Vector" d="M4.37 11.76C4.37 12.14 4.07 12.45 3.69 12.45C3.31 12.45 3.01 12.14 3.01 11.76C3.01 11.39 3.31 11.08 3.69 11.08C4.07 11.08 4.37 11.39 4.37 11.76Z" fill="#FFFFFF" fill-opacity="1.000000" fill-rule="evenodd"/>
		<path id="Vector" d="M7.48 11.76C7.48 12.14 7.18 12.45 6.8 12.45C6.42 12.45 6.12 12.14 6.12 11.76C6.12 11.39 6.42 11.08 6.8 11.08C7.18 11.08 7.48 11.39 7.48 11.76Z" fill="#FFFFFF" fill-opacity="1.000000" fill-rule="evenodd"/>
		<path id="Vector" d="M10.59 11.76C10.59 12.14 10.29 12.45 9.91 12.45C9.54 12.45 9.23 12.14 9.23 11.76C9.23 11.39 9.54 11.08 9.91 11.08C10.29 11.08 10.59 11.39 10.59 11.76Z" fill="#FFFFFF" fill-opacity="1.000000" fill-rule="evenodd"/>
		<path id="Vector" d="M13.7 11.76C13.7 12.14 13.4 12.45 13.02 12.45C12.65 12.45 12.34 12.14 12.34 11.76C12.34 11.39 12.65 11.08 13.02 11.08C13.4 11.08 13.7 11.39 13.7 11.76Z" fill="#FFFFFF" fill-opacity="1.000000" fill-rule="evenodd"/>
		<path id="Vector" d="M12.15 13.32C12.15 13.7 11.84 14 11.47 14C11.09 14 10.79 13.7 10.79 13.32C10.79 12.94 11.09 12.64 11.47 12.64C11.84 12.64 12.15 12.94 12.15 13.32Z" fill="#FFFFFF" fill-opacity="1.000000" fill-rule="evenodd"/>
		<path id="Vector" d="M9.04 13.32C9.04 13.7 8.73 14 8.36 14C7.98 14 7.68 13.7 7.68 13.32C7.68 12.94 7.98 12.64 8.36 12.64C8.73 12.64 9.04 12.94 9.04 13.32Z" fill="#FFFFFF" fill-opacity="1.000000" fill-rule="evenodd"/>
		<path id="Vector" d="M5.93 13.32C5.93 13.7 5.62 14 5.25 14C4.87 14 4.56 13.7 4.56 13.32C4.56 12.94 4.87 12.64 5.25 12.64C5.62 12.64 5.93 12.94 5.93 13.32Z" fill="#FFFFFF" fill-opacity="1.000000" fill-rule="evenodd"/>
		<path id="Vector" d="M1.94 19.54L26.05 19.54L26.05 21.49L1.94 21.49L1.94 19.54Z" fill="#D22F27" fill-opacity="1.000000" fill-rule="nonzero"/>
		<path id="Vector" d="M26.05 6.71L26.05 21.49L1.94 21.49L1.94 6.71L26.05 6.71Z" stroke="#FFFFFF" stroke-opacity="1.000000" stroke-width="2.000000" stroke-linejoin="round"/>
	</g>
</svg>
