<svg width="18.397186" height="18.397583" viewBox="0 0 18.3972 18.3976" fill="none" xmlns="http://www.w3.org/2000/svg" xmlns:xlink="http://www.w3.org/1999/xlink">
	<desc>
			Created with Pixso.
	</desc>
	<defs/>
	<g opacity="0.800000">
		<path id="Union" d="M8.17218 16.3444Q7.26294 16.3444 6.39639 16.152Q5.67902 15.9928 4.99091 15.7018Q4.29727 15.4083 3.67883 15.0009Q2.9895 14.5468 2.39359 13.9508Q1.79767 13.3549 1.34354 12.6656L1.34351 12.6656Q0.936005 12.0471 0.642609 11.3535Q0.351562 10.6654 0.192352 9.948L0.192322 9.948L0.192322 9.94788Q0 9.08142 0 8.17224Q0 7.26294 0.192322 6.39636Q0.351562 5.67908 0.642609 4.99084Q0.936005 4.29724 1.34351 3.67883L1.34351 3.67883L1.34351 3.67883Q1.79767 2.9895 2.39359 2.39355Q2.98947 1.79773 3.67877 1.34351Q4.29724 0.936035 4.99091 0.642578Q5.67902 0.351562 6.39639 0.192383Q7.26294 0 8.17218 0Q9.08142 0 9.94797 0.192383L9.94803 0.192383Q10.6654 0.351562 11.3535 0.642578Q12.0471 0.936035 12.6656 1.34351Q13.3549 1.79761 13.9508 2.39355Q14.5467 2.9895 15.0008 3.67871L15.0009 3.67871Q15.4084 4.29724 15.7018 4.99084Q15.9928 5.67896 16.152 6.39636Q16.3444 7.26294 16.3444 8.17224Q16.3444 9.08142 16.152 9.948Q15.9928 10.6654 15.7018 11.3535Q15.4084 12.0471 15.0008 12.6656Q14.8194 12.941 14.6153 13.2015L18.1002 16.6864C18.4962 17.0824 18.4962 17.7046 18.1002 18.1006C17.7042 18.4966 17.082 18.4966 16.686 18.1006L13.201 14.6156Q12.9407 14.8196 12.6656 15.0009Q12.0471 15.4083 11.3535 15.7018Q10.6653 15.9928 9.94797 16.152Q9.08142 16.3444 8.17218 16.3444ZM12.5443 12.5289Q12.9975 12.0741 13.3416 11.5481Q13.6423 11.0884 13.8597 10.5743Q14.0718 10.0729 14.1911 9.55029Q14.3444 8.87866 14.3444 8.17224Q14.3444 7.4657 14.1911 6.79407L14.1911 6.79407Q14.0718 6.27148 13.8597 5.77002Q13.6423 5.25598 13.3417 4.79639L13.3417 4.79639Q12.9946 4.26575 12.5366 3.80774Q12.0786 3.34973 11.548 3.00269L11.5479 3.00269Q11.0884 2.70203 10.5744 2.48462Q10.0729 2.27258 9.55029 2.15332L9.55026 2.1532Q8.87869 2 8.17218 2Q7.46567 2 6.79413 2.1532L6.7941 2.1532Q6.27145 2.27258 5.76999 2.48462Q5.25595 2.70203 4.79636 3.00269Q4.26578 3.34973 3.8078 3.80774Q3.34979 4.26575 3.00272 4.79626L3.00272 4.79639Q2.70206 5.25598 2.48462 5.77002Q2.27252 6.27148 2.15326 6.79419Q2 7.4657 2 8.17224Q2 8.87866 2.15323 9.55017L2.15326 9.55029L2.15326 9.55029Q2.27252 10.0729 2.48462 10.5743Q2.70206 11.0884 3.00272 11.548L3.00275 11.5481Q3.34979 12.0786 3.8078 12.5366Q4.26581 12.9946 4.79642 13.3417Q5.25598 13.6423 5.76999 13.8597Q6.27145 14.0719 6.79413 14.1912L6.79413 14.1912Q7.46567 14.3444 8.17218 14.3444Q8.87872 14.3444 9.55026 14.1912L9.55029 14.191Q10.0729 14.0718 10.5744 13.8597Q11.0884 13.6423 11.5479 13.3417L11.548 13.3417L11.548 13.3417Q12.0739 12.9977 12.5285 12.5446C12.5311 12.542 12.5337 12.5393 12.5363 12.5367C12.539 12.5341 12.5416 12.5315 12.5443 12.5289Z" clip-rule="evenodd" fill="#889EA8" fill-opacity="1.000000" fill-rule="evenodd"/>
	</g>
</svg>
