<svg width="26.000000" height="26.000000" viewBox="0 0 26 26" fill="none" xmlns="http://www.w3.org/2000/svg" xmlns:xlink="http://www.w3.org/1999/xlink">
	<desc>
			Created with Pixso.
	</desc>
	<defs>
		<clipPath id="clip3752_24048">
			<rect id="tabler:coin-euro-filled" rx="-0.500000" width="25.000000" height="25.000000" transform="translate(0.500000 0.500000)" fill="white" fill-opacity="0"/>
		</clipPath>
	</defs>
	<rect id="tabler:coin-euro-filled" rx="-0.500000" width="25.000000" height="25.000000" transform="translate(0.500000 0.500000)" fill="#FFFFFF" fill-opacity="0"/>
	<g clip-path="url(#clip3752_24048)">
		<path id="Vector" d="M18.41 3.74C20.06 4.69 21.43 6.06 22.38 7.7C23.33 9.35 23.83 11.22 23.83 13.12C23.83 15.02 23.33 16.89 22.38 18.54C21.43 20.18 20.06 21.55 18.41 22.5C16.76 23.45 14.9 23.95 12.99 23.95C11.09 23.95 9.22 23.45 7.58 22.5C5.93 21.55 4.56 20.18 3.61 18.54C2.66 16.89 2.16 15.02 2.16 13.12L2.17 12.77C2.23 10.9 2.77 9.07 3.75 7.48C4.72 5.88 6.09 4.56 7.73 3.65C9.37 2.74 11.21 2.27 13.08 2.29C14.95 2.3 16.79 2.8 18.41 3.74ZM13 6.62C10.77 6.62 8.91 8.19 8.07 10.41L7.58 10.41C7.3 10.41 7.04 10.52 6.84 10.71C6.64 10.9 6.51 11.16 6.5 11.43C6.48 11.71 6.57 11.98 6.75 12.19C6.93 12.4 7.18 12.54 7.45 12.57L7.6 12.58C7.57 12.94 7.57 13.3 7.6 13.66L7.58 13.66C7.29 13.66 7.02 13.78 6.81 13.98C6.61 14.18 6.49 14.46 6.49 14.75C6.49 15.03 6.61 15.31 6.81 15.51C7.02 15.71 7.29 15.83 7.58 15.83L8.07 15.83C8.91 18.05 10.77 19.62 13 19.62C14.23 19.62 15.4 19.12 16.34 18.24C16.55 18.05 16.67 17.78 16.68 17.49C16.69 17.2 16.58 16.92 16.39 16.71C16.19 16.5 15.92 16.38 15.63 16.37C15.34 16.36 15.06 16.47 14.85 16.66C14.3 17.18 13.66 17.45 13 17.45C12 17.45 11.07 16.83 10.47 15.83L11.91 15.83C12.2 15.83 12.47 15.71 12.68 15.51C12.88 15.31 13 15.03 13 14.75C13 14.46 12.88 14.18 12.68 13.98C12.47 13.78 12.2 13.66 11.91 13.66L9.77 13.66C9.74 13.3 9.74 12.94 9.77 12.58L11.91 12.58C12.2 12.58 12.47 12.46 12.68 12.26C12.88 12.06 13 11.78 13 11.5C13 11.21 12.88 10.93 12.68 10.73C12.47 10.53 12.2 10.41 11.91 10.41L10.46 10.41C11.07 9.41 12 8.79 13 8.79C13.66 8.79 14.3 9.06 14.86 9.58C15.06 9.77 15.34 9.88 15.63 9.87C15.92 9.86 16.19 9.74 16.39 9.53C16.58 9.32 16.69 9.04 16.68 8.75C16.67 8.46 16.55 8.19 16.34 8C15.4 7.12 14.23 6.62 13 6.62Z" fill="#FFFFFF" fill-opacity="1.000000" fill-rule="nonzero"/>
	</g>
</svg>
